<svg width="592" height="175" viewBox="0 0 592 175" fill="none" xmlns="http://www.w3.org/2000/svg">
<g style="mix-blend-mode:darken">
<path d="M92.8577 121.373C88.7565 128.825 83.1173 134.569 75.9402 138.605C68.7631 142.538 60.7937 144.504 52.032 144.504C41.313 144.504 32.1319 142.331 24.4887 137.984C16.9388 133.637 11.1132 127.428 7.01199 119.355C3.004 111.179 1 101.399 1 90.0148C1 78.32 3.23702 68.0741 7.71106 59.2771C12.1851 50.4802 18.3835 43.5978 26.3063 38.6301C34.3223 33.6624 43.55 31.1786 53.9894 31.1786C63.1239 31.1786 70.8137 33.0415 77.0587 36.7672C83.3969 40.493 88.7098 46.1334 92.9975 53.6885L75.5207 67.5049C73.2837 62.7442 70.2078 59.2771 66.293 57.1038C62.3783 54.9304 58.1838 53.8437 53.7098 53.8437C47.8376 53.8437 42.7111 55.3444 38.3303 58.3457C33.9494 61.347 30.5007 65.5385 27.9841 70.9202C25.5606 76.3019 24.3489 82.5115 24.3489 89.5491C24.3489 99.7949 26.7723 107.764 31.6192 113.456C36.4661 119.148 43.317 121.994 52.1718 121.994C56.9255 121.994 61.3996 120.752 65.594 118.269C69.8816 115.681 73.3303 111.8 75.9402 106.626L92.8577 121.373Z" fill="#C4C4C4"/>
<path d="M92.8577 121.373C88.7565 128.825 83.1173 134.569 75.9402 138.605C68.7631 142.538 60.7937 144.504 52.032 144.504C41.313 144.504 32.1319 142.331 24.4887 137.984C16.9388 133.637 11.1132 127.428 7.01199 119.355C3.004 111.179 1 101.399 1 90.0148C1 78.32 3.23702 68.0741 7.71106 59.2771C12.1851 50.4802 18.3835 43.5978 26.3063 38.6301C34.3223 33.6624 43.55 31.1786 53.9894 31.1786C63.1239 31.1786 70.8137 33.0415 77.0587 36.7672C83.3969 40.493 88.7098 46.1334 92.9975 53.6885L75.5207 67.5049C73.2837 62.7442 70.2078 59.2771 66.293 57.1038C62.3783 54.9304 58.1838 53.8437 53.7098 53.8437C47.8376 53.8437 42.7111 55.3444 38.3303 58.3457C33.9494 61.347 30.5007 65.5385 27.9841 70.9202C25.5606 76.3019 24.3489 82.5115 24.3489 89.5491C24.3489 99.7949 26.7723 107.764 31.6192 113.456C36.4661 119.148 43.317 121.994 52.1718 121.994C56.9255 121.994 61.3996 120.752 65.594 118.269C69.8816 115.681 73.3303 111.8 75.9402 106.626L92.8577 121.373Z" fill="#00C98D"/>
<path d="M99.2454 142.952V28.0738H120.637L120.777 63.9344L119.658 80.5451C122.548 74.853 126.229 70.4545 130.704 67.3496C135.271 64.2448 140.304 62.6924 145.803 62.6924C154.285 62.6924 160.624 65.9007 164.818 72.3174C169.012 78.6305 171.063 87.7379 170.97 99.6397L170.69 142.952H149.299L149.578 101.347C149.672 95.9657 148.926 91.8777 147.341 89.0833C145.85 86.1855 143.427 84.7366 140.071 84.7366C137.275 84.7366 134.711 85.668 132.381 87.5309C130.051 89.2903 128 92.3434 126.229 96.6901C124.552 101.037 123.2 106.988 122.175 114.543C121.15 122.098 120.59 131.568 120.497 142.952H99.2454Z" fill="#C4C4C4"/>
<path d="M99.2454 142.952V28.0738H120.637L120.777 63.9344L119.658 80.5451C122.548 74.853 126.229 70.4545 130.704 67.3496C135.271 64.2448 140.304 62.6924 145.803 62.6924C154.285 62.6924 160.624 65.9007 164.818 72.3174C169.012 78.6305 171.063 87.7379 170.97 99.6397L170.69 142.952H149.299L149.578 101.347C149.672 95.9657 148.926 91.8777 147.341 89.0833C145.85 86.1855 143.427 84.7366 140.071 84.7366C137.275 84.7366 134.711 85.668 132.381 87.5309C130.051 89.2903 128 92.3434 126.229 96.6901C124.552 101.037 123.2 106.988 122.175 114.543C121.15 122.098 120.59 131.568 120.497 142.952H99.2454Z" fill="#00C98D"/>
<path d="M221.449 144.504C213.526 144.504 206.676 142.9 200.897 139.692C195.118 136.38 190.644 131.775 187.474 125.875C184.305 119.873 182.721 112.783 182.721 104.607C182.721 96.3279 184.305 89.0316 187.474 82.7185C190.737 76.4054 195.071 71.4894 200.477 67.9706C205.976 64.4518 212.175 62.6924 219.072 62.6924C226.902 62.6924 233.287 64.6588 238.227 68.5916C243.167 72.5243 246.569 78.113 248.433 85.3576C250.391 92.4986 250.81 100.83 249.692 110.351H204.532C205.091 114.284 206.955 117.596 210.124 120.287C213.293 122.874 217.628 124.168 223.127 124.168C225.644 124.168 228.3 123.599 231.096 122.46C233.893 121.218 236.269 119.407 238.227 117.027L250.111 130.998C247.035 135.138 243.214 138.45 238.646 140.934C234.172 143.314 228.44 144.504 221.449 144.504ZM219.492 79.9241C215.763 79.9241 212.594 81.1661 209.984 83.6499C207.468 86.1338 205.79 89.6008 204.951 94.051H231.656C231.749 89.1868 230.677 85.6163 228.44 83.3394C226.296 81.0626 223.313 79.9241 219.492 79.9241Z" fill="#C4C4C4"/>
<path d="M221.449 144.504C213.526 144.504 206.676 142.9 200.897 139.692C195.118 136.38 190.644 131.775 187.474 125.875C184.305 119.873 182.721 112.783 182.721 104.607C182.721 96.3279 184.305 89.0316 187.474 82.7185C190.737 76.4054 195.071 71.4894 200.477 67.9706C205.976 64.4518 212.175 62.6924 219.072 62.6924C226.902 62.6924 233.287 64.6588 238.227 68.5916C243.167 72.5243 246.569 78.113 248.433 85.3576C250.391 92.4986 250.81 100.83 249.692 110.351H204.532C205.091 114.284 206.955 117.596 210.124 120.287C213.293 122.874 217.628 124.168 223.127 124.168C225.644 124.168 228.3 123.599 231.096 122.46C233.893 121.218 236.269 119.407 238.227 117.027L250.111 130.998C247.035 135.138 243.214 138.45 238.646 140.934C234.172 143.314 228.44 144.504 221.449 144.504ZM219.492 79.9241C215.763 79.9241 212.594 81.1661 209.984 83.6499C207.468 86.1338 205.79 89.6008 204.951 94.051H231.656C231.749 89.1868 230.677 85.6163 228.44 83.3394C226.296 81.0626 223.313 79.9241 219.492 79.9241Z" fill="#00C98D"/>
<path d="M295.393 144.504C288.03 144.504 281.645 142.952 276.239 139.847C270.833 136.639 266.638 132.085 263.655 126.186C260.673 120.287 259.181 113.249 259.181 105.073C259.181 96.6901 260.766 89.3421 263.935 83.029C267.197 76.6123 271.671 71.6446 277.357 68.1259C283.043 64.5036 289.661 62.6924 297.211 62.6924C303.363 62.6924 308.815 64.0378 313.569 66.7287C318.323 69.4195 322.144 73.611 325.034 79.3032L309.934 92.0329C308.443 89.0316 306.672 86.8582 304.621 85.5128C302.664 84.1674 300.193 83.4947 297.211 83.4947C292.644 83.4947 288.869 85.4611 285.886 89.3938C282.903 93.2231 281.412 98.2943 281.412 104.607C281.412 110.714 282.717 115.423 285.327 118.734C288.03 122.046 291.898 123.702 296.931 123.702C299.634 123.702 302.104 123.029 304.341 121.684C306.672 120.235 308.629 118.01 310.213 115.009L324.894 128.049C321.725 134.051 317.53 138.295 312.311 140.778C307.184 143.262 301.545 144.504 295.393 144.504Z" fill="#C4C4C4"/>
<path d="M295.393 144.504C288.03 144.504 281.645 142.952 276.239 139.847C270.833 136.639 266.638 132.085 263.655 126.186C260.673 120.287 259.181 113.249 259.181 105.073C259.181 96.6901 260.766 89.3421 263.935 83.029C267.197 76.6123 271.671 71.6446 277.357 68.1259C283.043 64.5036 289.661 62.6924 297.211 62.6924C303.363 62.6924 308.815 64.0378 313.569 66.7287C318.323 69.4195 322.144 73.611 325.034 79.3032L309.934 92.0329C308.443 89.0316 306.672 86.8582 304.621 85.5128C302.664 84.1674 300.193 83.4947 297.211 83.4947C292.644 83.4947 288.869 85.4611 285.886 89.3938C282.903 93.2231 281.412 98.2943 281.412 104.607C281.412 110.714 282.717 115.423 285.327 118.734C288.03 122.046 291.898 123.702 296.931 123.702C299.634 123.702 302.104 123.029 304.341 121.684C306.672 120.235 308.629 118.01 310.213 115.009L324.894 128.049C321.725 134.051 317.53 138.295 312.311 140.778C307.184 143.262 301.545 144.504 295.393 144.504Z" fill="#00C98D"/>
<path d="M332.314 142.952V28.0738H353.705V95.4482L380.13 63.9344H405.576L373.419 102.124C375.563 103.572 377.334 105.487 378.732 107.867L384.185 117.337C387.074 122.305 391.129 124.789 396.349 124.789C399.145 124.789 401.801 124.012 404.318 122.46L408.932 140.002C406.322 141.658 403.619 142.848 400.823 143.573C398.12 144.297 395.23 144.608 392.154 144.504C386.096 144.401 381.062 143.159 377.054 140.778C373.139 138.398 369.598 134.362 366.428 128.67L360.976 119.2C359.671 116.923 358.459 115.06 357.341 113.611C356.222 112.162 355.01 111.024 353.705 110.196V142.952H332.314Z" fill="#C4C4C4"/>
<path d="M332.314 142.952V28.0738H353.705V95.4482L380.13 63.9344H405.576L373.419 102.124C375.563 103.572 377.334 105.487 378.732 107.867L384.185 117.337C387.074 122.305 391.129 124.789 396.349 124.789C399.145 124.789 401.801 124.012 404.318 122.46L408.932 140.002C406.322 141.658 403.619 142.848 400.823 143.573C398.12 144.297 395.23 144.608 392.154 144.504C386.096 144.401 381.062 143.159 377.054 140.778C373.139 138.398 369.598 134.362 366.428 128.67L360.976 119.2C359.671 116.923 358.459 115.06 357.341 113.611C356.222 112.162 355.01 111.024 353.705 110.196V142.952H332.314Z" fill="#00C98D"/>
<path d="M517.458 174V63.9344H538.989L538.29 76.0431C543.417 67.1427 551.013 62.6924 561.08 62.6924C567.418 62.6924 572.824 64.2966 577.298 67.5049C581.772 70.7132 585.174 75.1634 587.505 80.8556C589.835 86.5477 591 93.0678 591 100.416C591 109.213 589.369 116.923 586.106 123.547C582.844 130.17 578.463 135.345 572.964 139.071C567.465 142.693 561.313 144.504 554.509 144.504C551.246 144.504 548.264 143.987 545.56 142.952C542.951 141.917 540.62 140.468 538.57 138.605L538.849 142.952V174H517.458ZM552.272 123.857C557.398 123.857 561.453 121.736 564.435 117.492C567.418 113.146 568.909 107.66 568.909 101.037C568.909 95.4482 567.744 91.1015 565.414 87.9967C563.177 84.8918 560.101 83.3394 556.186 83.3394C551.433 83.3394 547.331 85.5128 543.883 89.8596C540.527 94.2063 538.849 99.8984 538.849 106.936C538.849 112.111 540.061 116.25 542.485 119.355C544.908 122.357 548.17 123.857 552.272 123.857Z" fill="#C4C4C4"/>
<path d="M517.458 174V63.9344H538.989L538.29 76.0431C543.417 67.1427 551.013 62.6924 561.08 62.6924C567.418 62.6924 572.824 64.2966 577.298 67.5049C581.772 70.7132 585.174 75.1634 587.505 80.8556C589.835 86.5477 591 93.0678 591 100.416C591 109.213 589.369 116.923 586.106 123.547C582.844 130.17 578.463 135.345 572.964 139.071C567.465 142.693 561.313 144.504 554.509 144.504C551.246 144.504 548.264 143.987 545.56 142.952C542.951 141.917 540.62 140.468 538.57 138.605L538.849 142.952V174H517.458ZM552.272 123.857C557.398 123.857 561.453 121.736 564.435 117.492C567.418 113.146 568.909 107.66 568.909 101.037C568.909 95.4482 567.744 91.1015 565.414 87.9967C563.177 84.8918 560.101 83.3394 556.186 83.3394C551.433 83.3394 547.331 85.5128 543.883 89.8596C540.527 94.2063 538.849 99.8984 538.849 106.936C538.849 112.111 540.061 116.25 542.485 119.355C544.908 122.357 548.17 123.857 552.272 123.857Z" fill="#00C98D"/>
<path d="M449.33 98.7083L433.109 63.9005C432.317 62.1997 431.92 61.3493 431.37 60.6643C430.818 59.978 430.155 59.414 429.414 59.0022C428.675 58.5911 427.832 58.3885 426.146 57.9832C420.052 56.518 417.005 55.7854 415.067 56.7229C413.149 57.6506 411.745 59.5393 411.289 61.8061C410.828 64.097 412.053 67.2797 414.505 73.6453L422.811 95.2153L430.882 113.844L439.439 130.261L442.005 134.501C442.36 135.088 442.537 135.381 442.739 135.653C442.941 135.925 443.166 136.175 443.616 136.675L446.426 139.795C446.755 140.16 446.92 140.343 447.095 140.512C447.271 140.682 447.457 140.837 447.83 141.147L449.222 142.306C450.334 143.232 450.89 143.695 451.516 144.017C452.141 144.339 452.819 144.51 454.174 144.853L454.81 145.014C455.528 145.195 455.887 145.286 456.252 145.332C456.618 145.377 456.986 145.377 457.722 145.377H460.484C461.311 145.377 461.725 145.377 462.133 145.32C462.287 145.299 462.44 145.271 462.592 145.238C462.995 145.149 463.388 145.003 464.172 144.713C464.82 144.473 465.144 144.353 465.454 144.197C465.571 144.139 465.686 144.076 465.8 144.01C466.101 143.834 466.385 143.623 466.953 143.203L467.851 142.538C468.39 142.139 468.66 141.939 468.91 141.712C469.16 141.484 469.39 141.229 469.848 140.72L471.329 139.076C471.768 138.588 471.988 138.345 472.191 138.085C472.394 137.824 472.58 137.549 472.953 136.997L478.761 128.398L483.009 120.83L493.143 98.7083L503.884 75.0341L513.897 50.9718L526.579 21.8641L529.494 13.7691C529.69 13.2273 529.787 12.956 529.861 12.6975C530.5 10.4509 530.12 7.99987 528.841 6.12001C528.693 5.90365 528.52 5.68449 528.173 5.24618L526.394 3.00082C524.133 0.147457 520.067 0.380849 518.084 3.47782L501.699 32.5854L487.5 59.1219L477.001 78.9151L460.627 108.679C460.055 109.718 459.038 110.351 457.942 110.351C456.884 110.351 455.897 109.762 455.315 108.781L449.33 98.7083Z" fill="#C4C4C4"/>
<path d="M449.33 98.7083L433.109 63.9005C432.317 62.1997 431.92 61.3493 431.37 60.6643C430.818 59.978 430.155 59.414 429.414 59.0022C428.675 58.5911 427.832 58.3885 426.146 57.9832C420.052 56.518 417.005 55.7854 415.067 56.7229C413.149 57.6506 411.745 59.5393 411.289 61.8061C410.828 64.097 412.053 67.2797 414.505 73.6453L422.811 95.2153L430.882 113.844L439.439 130.261L442.005 134.501C442.36 135.088 442.537 135.381 442.739 135.653C442.941 135.925 443.166 136.175 443.616 136.675L446.426 139.795C446.755 140.16 446.92 140.343 447.095 140.512C447.271 140.682 447.457 140.837 447.83 141.147L449.222 142.306C450.334 143.232 450.89 143.695 451.516 144.017C452.141 144.339 452.819 144.51 454.174 144.853L454.81 145.014C455.528 145.195 455.887 145.286 456.252 145.332C456.618 145.377 456.986 145.377 457.722 145.377H460.484C461.311 145.377 461.725 145.377 462.133 145.32C462.287 145.299 462.44 145.271 462.592 145.238C462.995 145.149 463.388 145.003 464.172 144.713C464.82 144.473 465.144 144.353 465.454 144.197C465.571 144.139 465.686 144.076 465.8 144.01C466.101 143.834 466.385 143.623 466.953 143.203L467.851 142.538C468.39 142.139 468.66 141.939 468.91 141.712C469.16 141.484 469.39 141.229 469.848 140.72L471.329 139.076C471.768 138.588 471.988 138.345 472.191 138.085C472.394 137.824 472.58 137.549 472.953 136.997L478.761 128.398L483.009 120.83L493.143 98.7083L503.884 75.0341L513.897 50.9718L526.579 21.8641L529.494 13.7691C529.69 13.2273 529.787 12.956 529.861 12.6975C530.5 10.4509 530.12 7.99987 528.841 6.12001C528.693 5.90365 528.52 5.68449 528.173 5.24618L526.394 3.00082C524.133 0.147457 520.067 0.380849 518.084 3.47782L501.699 32.5854L487.5 59.1219L477.001 78.9151L460.627 108.679C460.055 109.718 459.038 110.351 457.942 110.351C456.884 110.351 455.897 109.762 455.315 108.781L449.33 98.7083Z" fill="#00C98D"/>
<path d="M92.8577 121.373C88.7565 128.825 83.1173 134.569 75.9402 138.605C68.7631 142.538 60.7937 144.504 52.032 144.504C41.313 144.504 32.1319 142.331 24.4887 137.984C16.9388 133.637 11.1132 127.428 7.01199 119.355C3.004 111.179 1 101.399 1 90.0148C1 78.32 3.23702 68.0741 7.71106 59.2771C12.1851 50.4802 18.3835 43.5978 26.3063 38.6301C34.3223 33.6624 43.55 31.1786 53.9894 31.1786C63.1239 31.1786 70.8137 33.0415 77.0587 36.7672C83.3969 40.493 88.7098 46.1334 92.9975 53.6885L75.5207 67.5049C73.2837 62.7442 70.2078 59.2771 66.293 57.1038C62.3783 54.9304 58.1838 53.8437 53.7098 53.8437C47.8376 53.8437 42.7111 55.3444 38.3303 58.3457C33.9494 61.347 30.5007 65.5385 27.9841 70.9202C25.5606 76.3019 24.3489 82.5115 24.3489 89.5491C24.3489 99.7949 26.7723 107.764 31.6192 113.456C36.4661 119.148 43.317 121.994 52.1718 121.994C56.9255 121.994 61.3996 120.752 65.594 118.269C69.8816 115.681 73.3303 111.8 75.9402 106.626L92.8577 121.373Z" stroke="#00C98D"/>
<path d="M99.2454 142.952V28.0738H120.637L120.777 63.9344L119.658 80.5451C122.548 74.853 126.229 70.4545 130.704 67.3496C135.271 64.2448 140.304 62.6924 145.803 62.6924C154.285 62.6924 160.624 65.9007 164.818 72.3174C169.012 78.6305 171.063 87.7379 170.97 99.6397L170.69 142.952H149.299L149.578 101.347C149.672 95.9657 148.926 91.8777 147.341 89.0833C145.85 86.1855 143.427 84.7366 140.071 84.7366C137.275 84.7366 134.711 85.668 132.381 87.5309C130.051 89.2903 128 92.3434 126.229 96.6901C124.552 101.037 123.2 106.988 122.175 114.543C121.15 122.098 120.59 131.568 120.497 142.952H99.2454Z" stroke="#00C98D"/>
<path d="M221.449 144.504C213.526 144.504 206.676 142.9 200.897 139.692C195.118 136.38 190.644 131.775 187.474 125.875C184.305 119.873 182.721 112.783 182.721 104.607C182.721 96.3279 184.305 89.0316 187.474 82.7185C190.737 76.4054 195.071 71.4894 200.477 67.9706C205.976 64.4518 212.175 62.6924 219.072 62.6924C226.902 62.6924 233.287 64.6588 238.227 68.5916C243.167 72.5243 246.569 78.113 248.433 85.3576C250.391 92.4986 250.81 100.83 249.692 110.351H204.532C205.091 114.284 206.955 117.596 210.124 120.287C213.293 122.874 217.628 124.168 223.127 124.168C225.644 124.168 228.3 123.599 231.096 122.46C233.893 121.218 236.269 119.407 238.227 117.027L250.111 130.998C247.035 135.138 243.214 138.45 238.646 140.934C234.172 143.314 228.44 144.504 221.449 144.504ZM219.492 79.9241C215.763 79.9241 212.594 81.1661 209.984 83.6499C207.468 86.1338 205.79 89.6008 204.951 94.051H231.656C231.749 89.1868 230.677 85.6163 228.44 83.3394C226.296 81.0626 223.313 79.9241 219.492 79.9241Z" stroke="#00C98D"/>
<path d="M295.393 144.504C288.03 144.504 281.645 142.952 276.239 139.847C270.833 136.639 266.638 132.085 263.655 126.186C260.673 120.287 259.181 113.249 259.181 105.073C259.181 96.6901 260.766 89.3421 263.935 83.029C267.197 76.6123 271.671 71.6446 277.357 68.1259C283.043 64.5036 289.661 62.6924 297.211 62.6924C303.363 62.6924 308.815 64.0378 313.569 66.7287C318.323 69.4195 322.144 73.611 325.034 79.3032L309.934 92.0329C308.443 89.0316 306.672 86.8582 304.621 85.5128C302.664 84.1674 300.193 83.4947 297.211 83.4947C292.644 83.4947 288.869 85.4611 285.886 89.3938C282.903 93.2231 281.412 98.2943 281.412 104.607C281.412 110.714 282.717 115.423 285.327 118.734C288.03 122.046 291.898 123.702 296.931 123.702C299.634 123.702 302.104 123.029 304.341 121.684C306.672 120.235 308.629 118.01 310.213 115.009L324.894 128.049C321.725 134.051 317.53 138.295 312.311 140.778C307.184 143.262 301.545 144.504 295.393 144.504Z" stroke="#00C98D"/>
<path d="M332.314 142.952V28.0738H353.705V95.4482L380.13 63.9344H405.576L373.419 102.124C375.563 103.572 377.334 105.487 378.732 107.867L384.185 117.337C387.074 122.305 391.129 124.789 396.349 124.789C399.145 124.789 401.801 124.012 404.318 122.46L408.932 140.002C406.322 141.658 403.619 142.848 400.823 143.573C398.12 144.297 395.23 144.608 392.154 144.504C386.096 144.401 381.062 143.159 377.054 140.778C373.139 138.398 369.598 134.362 366.428 128.67L360.976 119.2C359.671 116.923 358.459 115.06 357.341 113.611C356.222 112.162 355.01 111.024 353.705 110.196V142.952H332.314Z" stroke="#00C98D"/>
<path d="M517.458 174V63.9344H538.989L538.29 76.0431C543.417 67.1427 551.013 62.6924 561.08 62.6924C567.418 62.6924 572.824 64.2966 577.298 67.5049C581.772 70.7132 585.174 75.1634 587.505 80.8556C589.835 86.5477 591 93.0678 591 100.416C591 109.213 589.369 116.923 586.106 123.547C582.844 130.17 578.463 135.345 572.964 139.071C567.465 142.693 561.313 144.504 554.509 144.504C551.246 144.504 548.264 143.987 545.56 142.952C542.951 141.917 540.62 140.468 538.57 138.605L538.849 142.952V174H517.458ZM552.272 123.857C557.398 123.857 561.453 121.736 564.435 117.492C567.418 113.146 568.909 107.66 568.909 101.037C568.909 95.4482 567.744 91.1015 565.414 87.9967C563.177 84.8918 560.101 83.3394 556.186 83.3394C551.433 83.3394 547.331 85.5128 543.883 89.8596C540.527 94.2063 538.849 99.8984 538.849 106.936C538.849 112.111 540.061 116.25 542.485 119.355C544.908 122.357 548.17 123.857 552.272 123.857Z" stroke="#00C98D"/>
<path d="M449.33 98.7083L433.109 63.9005C432.317 62.1997 431.92 61.3493 431.37 60.6643C430.818 59.978 430.155 59.414 429.414 59.0022C428.675 58.5911 427.832 58.3885 426.146 57.9832C420.052 56.518 417.005 55.7854 415.067 56.7229C413.149 57.6506 411.745 59.5393 411.289 61.8061C410.828 64.097 412.053 67.2797 414.505 73.6453L422.811 95.2153L430.882 113.844L439.439 130.261L442.005 134.501C442.36 135.088 442.537 135.381 442.739 135.653C442.941 135.925 443.166 136.175 443.616 136.675L446.426 139.795C446.755 140.16 446.92 140.343 447.095 140.512C447.271 140.682 447.457 140.837 447.83 141.147L449.222 142.306C450.334 143.232 450.89 143.695 451.516 144.017C452.141 144.339 452.819 144.51 454.174 144.853L454.81 145.014C455.528 145.195 455.887 145.286 456.252 145.332C456.618 145.377 456.986 145.377 457.722 145.377H460.484C461.311 145.377 461.725 145.377 462.133 145.32C462.287 145.299 462.44 145.271 462.592 145.238C462.995 145.149 463.388 145.003 464.172 144.713C464.82 144.473 465.144 144.353 465.454 144.197C465.571 144.139 465.686 144.076 465.8 144.01C466.101 143.834 466.385 143.623 466.953 143.203L467.851 142.538C468.39 142.139 468.66 141.939 468.91 141.712C469.16 141.484 469.39 141.229 469.848 140.72L471.329 139.076C471.768 138.588 471.988 138.345 472.191 138.085C472.394 137.824 472.58 137.549 472.953 136.997L478.761 128.398L483.009 120.83L493.143 98.7083L503.884 75.0341L513.897 50.9718L526.579 21.8641L529.494 13.7691C529.69 13.2273 529.787 12.956 529.861 12.6975C530.5 10.4509 530.12 7.99987 528.841 6.12001C528.693 5.90365 528.52 5.68449 528.173 5.24618L526.394 3.00082C524.133 0.147457 520.067 0.380849 518.084 3.47782L501.699 32.5854L487.5 59.1219L477.001 78.9151L460.627 108.679C460.055 109.718 459.038 110.351 457.942 110.351C456.884 110.351 455.897 109.762 455.315 108.781L449.33 98.7083Z" stroke="#00C98D"/>
</g>
</svg>
