<svg width="290" height="85" viewBox="0 0 290 85" fill="none" xmlns="http://www.w3.org/2000/svg">
<path d="M44.352 55.104C42.4747 58.176 39.8933 60.544 36.608 62.208C33.3227 63.8293 29.6747 64.64 25.664 64.64C20.7573 64.64 16.5547 63.744 13.056 61.952C9.6 60.16 6.93333 57.6 5.056 54.272C3.22133 50.9013 2.304 46.8693 2.304 42.176C2.304 37.3547 3.328 33.1307 5.376 29.504C7.424 25.8773 10.2613 23.04 13.888 20.992C17.5573 18.944 21.7813 17.92 26.56 17.92C30.7413 17.92 34.2613 18.688 37.12 20.224C40.0213 21.76 42.4533 24.0853 44.416 27.2L36.416 32.896C35.392 30.9333 33.984 29.504 32.192 28.608C30.4 27.712 28.48 27.264 26.432 27.264C23.744 27.264 21.3973 27.8827 19.392 29.12C17.3867 30.3573 15.808 32.0853 14.656 34.304C13.5467 36.5227 12.992 39.0827 12.992 41.984C12.992 46.208 14.1013 49.4933 16.32 51.84C18.5387 54.1867 21.6747 55.36 25.728 55.36C27.904 55.36 29.952 54.848 31.872 53.824C33.8347 52.7573 35.4133 51.1573 36.608 49.024L44.352 55.104ZM47.276 64V16.64H57.068L57.132 31.424L56.62 38.272C57.9427 35.9253 59.628 34.112 61.676 32.832C63.7667 31.552 66.0707 30.912 68.588 30.912C72.4707 30.912 75.372 32.2347 77.292 34.88C79.212 37.4827 80.1507 41.2373 80.108 46.144L79.98 64H70.188L70.316 46.848C70.3587 44.6293 70.0173 42.944 69.292 41.792C68.6093 40.5973 67.5 40 65.964 40C64.684 40 63.5107 40.384 62.444 41.152C61.3773 41.8773 60.4387 43.136 59.628 44.928C58.86 46.72 58.2413 49.1733 57.772 52.288C57.3027 55.4027 57.0467 59.3067 57.004 64H47.276ZM103.215 64.64C99.5883 64.64 96.4523 63.9787 93.807 62.656C91.1617 61.2907 89.1137 59.392 87.663 56.96C86.2123 54.4853 85.487 51.5627 85.487 48.192C85.487 44.7787 86.2123 41.7707 87.663 39.168C89.1563 36.5653 91.1403 34.5387 93.615 33.088C96.1323 31.6373 98.9697 30.912 102.127 30.912C105.711 30.912 108.634 31.7227 110.895 33.344C113.156 34.9653 114.714 37.2693 115.567 40.256C116.463 43.2 116.655 46.6347 116.143 50.56H95.471C95.727 52.1813 96.5803 53.5467 98.031 54.656C99.4817 55.7227 101.466 56.256 103.983 56.256C105.135 56.256 106.351 56.0213 107.631 55.552C108.911 55.04 109.999 54.2933 110.895 53.312L116.335 59.072C114.927 60.7787 113.178 62.144 111.087 63.168C109.039 64.1493 106.415 64.64 103.215 64.64ZM102.319 38.016C100.612 38.016 99.1617 38.528 97.967 39.552C96.815 40.576 96.047 42.0053 95.663 43.84H107.887C107.93 41.8347 107.439 40.3627 106.415 39.424C105.434 38.4853 104.068 38.016 102.319 38.016ZM137.063 64.64C133.692 64.64 130.77 64 128.295 62.72C125.82 61.3973 123.9 59.52 122.535 57.088C121.17 54.656 120.487 51.7547 120.487 48.384C120.487 44.928 121.212 41.8987 122.663 39.296C124.156 36.6507 126.204 34.6027 128.807 33.152C131.41 31.6587 134.439 30.912 137.895 30.912C140.711 30.912 143.207 31.4667 145.383 32.576C147.559 33.6853 149.308 35.4133 150.631 37.76L143.719 43.008C143.036 41.7707 142.226 40.8747 141.287 40.32C140.391 39.7653 139.26 39.488 137.895 39.488C135.804 39.488 134.076 40.2987 132.711 41.92C131.346 43.4987 130.663 45.5893 130.663 48.192C130.663 50.7093 131.26 52.6507 132.455 54.016C133.692 55.3813 135.463 56.064 137.767 56.064C139.004 56.064 140.135 55.7867 141.159 55.232C142.226 54.6347 143.122 53.7173 143.847 52.48L150.567 57.856C149.116 60.3307 147.196 62.08 144.807 63.104C142.46 64.128 139.879 64.64 137.063 64.64ZM153.964 64V16.64H163.756V44.416L175.852 31.424H187.5L172.78 47.168C173.761 47.7653 174.572 48.5547 175.212 49.536L177.708 53.44C179.03 55.488 180.886 56.512 183.276 56.512C184.556 56.512 185.772 56.192 186.924 55.552L189.036 62.784C187.841 63.4667 186.604 63.9573 185.324 64.256C184.086 64.5547 182.764 64.6827 181.356 64.64C178.582 64.5973 176.278 64.0853 174.444 63.104C172.652 62.1227 171.03 60.4587 169.58 58.112L167.083 54.208C166.486 53.2693 165.932 52.5013 165.42 51.904C164.908 51.3067 164.353 50.8373 163.756 50.496V64H153.964ZM238.714 76.8V31.424H248.57L248.25 36.416C250.596 32.7467 254.074 30.912 258.682 30.912C261.583 30.912 264.058 31.5733 266.106 32.896C268.154 34.2187 269.711 36.0533 270.778 38.4C271.844 40.7467 272.378 43.4347 272.378 46.464C272.378 50.0907 271.631 53.2693 270.138 56C268.644 58.7307 266.639 60.864 264.122 62.4C261.604 63.8933 258.788 64.64 255.674 64.64C254.18 64.64 252.815 64.4267 251.578 64C250.383 63.5733 249.316 62.976 248.378 62.208L248.506 64V76.8H238.714ZM254.65 56.128C256.996 56.128 258.852 55.2533 260.218 53.504C261.583 51.712 262.266 49.4507 262.266 46.72C262.266 44.416 261.732 42.624 260.666 41.344C259.642 40.064 258.234 39.424 256.442 39.424C254.266 39.424 252.388 40.32 250.81 42.112C249.274 43.904 248.506 46.2507 248.506 49.152C248.506 51.2853 249.06 52.992 250.17 54.272C251.279 55.5093 252.772 56.128 254.65 56.128Z" fill="#00C98D"/>
<g style="mix-blend-mode:darken">
<path d="M207.528 45.76L200.103 31.41C199.74 30.7089 199.558 30.3583 199.307 30.0759C199.054 29.7929 198.75 29.5604 198.411 29.3907C198.073 29.2212 197.687 29.1376 196.915 28.9706C194.126 28.3665 192.731 28.0645 191.844 28.451C190.966 28.8335 190.323 29.6121 190.114 30.5466C189.903 31.491 190.464 32.8032 191.586 35.4275L195.389 44.32L199.083 52L200 53.584L200.988 55.292L201.977 57L203 58.768L204.175 60.5162L204.175 60.5163C204.337 60.7579 204.419 60.8788 204.511 60.991C204.603 61.1033 204.706 61.2062 204.912 61.4122L206.198 62.6985L206.199 62.6985C206.349 62.8492 206.425 62.9245 206.505 62.9943C206.585 63.064 206.671 63.128 206.841 63.2558L206.841 63.2558L207.478 63.7337C207.987 64.1154 208.242 64.3063 208.528 64.439C208.815 64.5717 209.125 64.6424 209.745 64.7837L210.036 64.8501C210.365 64.925 210.529 64.9624 210.697 64.9812C210.864 65 211.032 65 211.369 65H212.634C213.012 65 213.201 65 213.388 64.9764C213.459 64.9676 213.529 64.9562 213.598 64.9423C213.783 64.9056 213.963 64.8458 214.322 64.7261C214.618 64.6272 214.767 64.5778 214.909 64.5135C214.962 64.4892 215.015 64.4634 215.067 64.4361C215.205 64.3636 215.335 64.2769 215.595 64.1035L215.595 64.1035L216.006 63.8296C216.253 63.6649 216.376 63.5826 216.491 63.4887C216.605 63.3947 216.71 63.2898 216.92 63.08L216.92 63.0799L217.598 62.402C217.799 62.2011 217.899 62.1006 217.992 61.9934C218.085 61.8861 218.171 61.7725 218.341 61.5452L221 58L222.944 54.88L227.583 45.76L232.5 36L237.083 26.08L242.889 14.08L244.223 10.7427L244.223 10.7426C244.313 10.5192 244.357 10.4075 244.391 10.3009C244.683 9.37474 244.509 8.36427 243.924 7.58928C243.857 7.50008 243.777 7.40973 243.618 7.22903L242.804 6.30335C241.769 5.12701 239.908 5.22323 239 6.5L236.5 10.5L231.5 18.5L225 29.44L220.194 37.6L212.699 49.8705C212.437 50.2988 211.972 50.56 211.47 50.56C210.986 50.56 210.534 50.3169 210.267 49.9128L207.528 45.76Z" fill="#C4C4C4"/>
<path d="M207.528 45.76L200.103 31.41C199.74 30.7089 199.558 30.3583 199.307 30.0759C199.054 29.7929 198.75 29.5604 198.411 29.3907C198.073 29.2212 197.687 29.1376 196.915 28.9706C194.126 28.3665 192.731 28.0645 191.844 28.451C190.966 28.8335 190.323 29.6121 190.114 30.5466C189.903 31.491 190.464 32.8032 191.586 35.4275L195.389 44.32L199.083 52L200 53.584L200.988 55.292L201.977 57L203 58.768L204.175 60.5162L204.175 60.5163C204.337 60.7579 204.419 60.8788 204.511 60.991C204.603 61.1033 204.706 61.2062 204.912 61.4122L206.198 62.6985L206.199 62.6985C206.349 62.8492 206.425 62.9245 206.505 62.9943C206.585 63.064 206.671 63.128 206.841 63.2558L206.841 63.2558L207.478 63.7337C207.987 64.1154 208.242 64.3063 208.528 64.439C208.815 64.5717 209.125 64.6424 209.745 64.7837L210.036 64.8501C210.365 64.925 210.529 64.9624 210.697 64.9812C210.864 65 211.032 65 211.369 65H212.634C213.012 65 213.201 65 213.388 64.9764C213.459 64.9676 213.529 64.9562 213.598 64.9423C213.783 64.9056 213.963 64.8458 214.322 64.7261C214.618 64.6272 214.767 64.5778 214.909 64.5135C214.962 64.4892 215.015 64.4634 215.067 64.4361C215.205 64.3636 215.335 64.2769 215.595 64.1035L215.595 64.1035L216.006 63.8296C216.253 63.6649 216.376 63.5826 216.491 63.4887C216.605 63.3947 216.71 63.2898 216.92 63.08L216.92 63.0799L217.598 62.402C217.799 62.2011 217.899 62.1006 217.992 61.9934C218.085 61.8861 218.171 61.7725 218.341 61.5452L221 58L222.944 54.88L227.583 45.76L232.5 36L237.083 26.08L242.889 14.08L244.223 10.7427L244.223 10.7426C244.313 10.5192 244.357 10.4075 244.391 10.3009C244.683 9.37474 244.509 8.36427 243.924 7.58928C243.857 7.50008 243.777 7.40973 243.618 7.22903L242.804 6.30335C241.769 5.12701 239.908 5.22323 239 6.5L236.5 10.5L231.5 18.5L225 29.44L220.194 37.6L212.699 49.8705C212.437 50.2988 211.972 50.56 211.47 50.56C210.986 50.56 210.534 50.3169 210.267 49.9128L207.528 45.76Z" fill="#00C98D"/>
<path d="M207.528 45.76L200.103 31.41C199.74 30.7089 199.558 30.3583 199.307 30.0759C199.054 29.7929 198.75 29.5604 198.411 29.3907C198.073 29.2212 197.687 29.1376 196.915 28.9706C194.126 28.3665 192.731 28.0645 191.844 28.451C190.966 28.8335 190.323 29.6121 190.114 30.5466C189.903 31.491 190.464 32.8032 191.586 35.4275L195.389 44.32L199.083 52L200 53.584L200.988 55.292L201.977 57L203 58.768L204.175 60.5162L204.175 60.5163C204.337 60.7579 204.419 60.8788 204.511 60.991C204.603 61.1033 204.706 61.2062 204.912 61.4122L206.198 62.6985L206.199 62.6985C206.349 62.8492 206.425 62.9245 206.505 62.9943C206.585 63.064 206.671 63.128 206.841 63.2558L206.841 63.2558L207.478 63.7337C207.987 64.1154 208.242 64.3063 208.528 64.439C208.815 64.5717 209.125 64.6424 209.745 64.7837L210.036 64.8501C210.365 64.925 210.529 64.9624 210.697 64.9812C210.864 65 211.032 65 211.369 65H212.634C213.012 65 213.201 65 213.388 64.9764C213.459 64.9676 213.529 64.9562 213.598 64.9423C213.783 64.9056 213.963 64.8458 214.322 64.7261C214.618 64.6272 214.767 64.5778 214.909 64.5135C214.962 64.4892 215.015 64.4634 215.067 64.4361C215.205 64.3636 215.335 64.2769 215.595 64.1035L215.595 64.1035L216.006 63.8296C216.253 63.6649 216.376 63.5826 216.491 63.4887C216.605 63.3947 216.71 63.2898 216.92 63.08L216.92 63.0799L217.598 62.402C217.799 62.2011 217.899 62.1006 217.992 61.9934C218.085 61.8861 218.171 61.7725 218.341 61.5452L221 58L222.944 54.88L227.583 45.76L232.5 36L237.083 26.08L242.889 14.08L244.223 10.7427L244.223 10.7426C244.313 10.5192 244.357 10.4075 244.391 10.3009C244.683 9.37474 244.509 8.36427 243.924 7.58928C243.857 7.50008 243.777 7.40973 243.618 7.22903L242.804 6.30335C241.769 5.12701 239.908 5.22323 239 6.5L236.5 10.5L231.5 18.5L225 29.44L220.194 37.6L212.699 49.8705C212.437 50.2988 211.972 50.56 211.47 50.56C210.986 50.56 210.534 50.3169 210.267 49.9128L207.528 45.76Z" stroke="#00C98D"/>
</g>
</svg>
