<svg width="306" height="91" viewBox="0 0 306 91" fill="none" xmlns="http://www.w3.org/2000/svg">
<path d="M48.33 62.9958C46.2169 66.8335 43.3113 69.7918 39.6133 71.8706C35.9152 73.8961 31.809 74.9088 27.2945 74.9088C21.7714 74.9088 17.0408 73.7895 13.1027 71.5508C9.21252 69.3121 6.21087 66.114 4.0977 61.9564C2.03257 57.7455 1 52.7084 1 46.8452C1 40.822 2.15263 35.5451 4.4579 31.0144C6.76317 26.4837 9.95693 22.9391 14.0392 20.3806C18.1694 17.8221 22.9241 16.5428 28.303 16.5428C33.0096 16.5428 36.9718 17.5023 40.1896 19.4212C43.4554 21.34 46.1929 24.245 48.4021 28.1361L39.3971 35.2519C38.2445 32.8 36.6596 31.0144 34.6425 29.8951C32.6254 28.7757 30.4642 28.216 28.1589 28.216C25.1333 28.216 22.4918 28.9889 20.2346 30.5347C17.9773 32.0805 16.2004 34.2392 14.9037 37.0109C13.655 39.7826 13.0306 42.9808 13.0306 46.6053C13.0306 51.8823 14.2793 55.9865 16.7767 58.9182C19.2741 61.8498 22.804 63.3156 27.3665 63.3156C29.8159 63.3156 32.1211 62.676 34.2823 61.3967C36.4915 60.0642 38.2685 58.0653 39.6133 55.4002L48.33 62.9958Z" fill="white"/>
<path d="M48.33 62.9958C46.2169 66.8335 43.3113 69.7918 39.6133 71.8706C35.9152 73.8961 31.809 74.9088 27.2945 74.9088C21.7714 74.9088 17.0408 73.7895 13.1027 71.5508C9.21252 69.3121 6.21087 66.114 4.0977 61.9564C2.03257 57.7455 1 52.7084 1 46.8452C1 40.822 2.15263 35.5451 4.4579 31.0144C6.76317 26.4837 9.95693 22.9391 14.0392 20.3806C18.1694 17.8221 22.9241 16.5428 28.303 16.5428C33.0096 16.5428 36.9718 17.5023 40.1896 19.4212C43.4554 21.34 46.1929 24.245 48.4021 28.1361L39.3971 35.2519C38.2445 32.8 36.6596 31.0144 34.6425 29.8951C32.6254 28.7757 30.4642 28.216 28.1589 28.216C25.1333 28.216 22.4918 28.9889 20.2346 30.5347C17.9773 32.0805 16.2004 34.2392 14.9037 37.0109C13.655 39.7826 13.0306 42.9808 13.0306 46.6053C13.0306 51.8823 14.2793 55.9865 16.7767 58.9182C19.2741 61.8498 22.804 63.3156 27.3665 63.3156C29.8159 63.3156 32.1211 62.676 34.2823 61.3967C36.4915 60.0642 38.2685 58.0653 39.6133 55.4002L48.33 62.9958Z" fill="white"/>
<path d="M51.6214 74.1093V14.9438H62.6434L62.7155 33.413L62.1391 41.968C63.628 39.0364 65.525 36.7711 67.8303 35.172C70.1836 33.5729 72.777 32.7734 75.6106 32.7734C79.981 32.7734 83.2468 34.4258 85.4079 37.7305C87.5691 40.9819 88.6257 45.6725 88.5777 51.8023L88.4336 74.1093H77.4116L77.5556 52.6818C77.6037 49.9101 77.2194 47.8046 76.403 46.3655C75.6346 44.873 74.3859 44.1268 72.6569 44.1268C71.2161 44.1268 69.8954 44.6065 68.6947 45.5659C67.4941 46.4721 66.4375 48.0445 65.525 50.2832C64.6605 52.5219 63.9641 55.5868 63.4359 59.4778C62.9076 63.3689 62.6194 68.2461 62.5714 74.1093H51.6214Z" fill="white"/>
<path d="M51.6214 74.1093V14.9438H62.6434L62.7155 33.413L62.1391 41.968C63.628 39.0364 65.525 36.7711 67.8303 35.172C70.1836 33.5729 72.777 32.7734 75.6106 32.7734C79.981 32.7734 83.2468 34.4258 85.4079 37.7305C87.5691 40.9819 88.6257 45.6725 88.5777 51.8023L88.4336 74.1093H77.4116L77.5556 52.6818C77.6037 49.9101 77.2194 47.8046 76.403 46.3655C75.6346 44.873 74.3859 44.1268 72.6569 44.1268C71.2161 44.1268 69.8954 44.6065 68.6947 45.5659C67.4941 46.4721 66.4375 48.0445 65.525 50.2832C64.6605 52.5219 63.9641 55.5868 63.4359 59.4778C62.9076 63.3689 62.6194 68.2461 62.5714 74.1093H51.6214Z" fill="white"/>
<path d="M114.587 74.9088C110.505 74.9088 106.975 74.0827 103.998 72.4303C101.02 70.7246 98.7146 68.3527 97.0817 65.3144C95.4489 62.2229 94.6324 58.5717 94.6324 54.3608C94.6324 50.0966 95.4489 46.3388 97.0817 43.0874C98.7627 39.8359 100.996 37.3041 103.781 35.4918C106.615 33.6795 109.809 32.7734 113.363 32.7734C117.397 32.7734 120.687 33.7861 123.232 35.8116C125.778 37.8371 127.531 40.7154 128.491 44.4466C129.5 48.1244 129.716 52.4153 129.139 57.3191H105.871C106.159 59.3446 107.119 61.0502 108.752 62.4361C110.385 63.7687 112.618 64.4349 115.452 64.4349C116.749 64.4349 118.117 64.1418 119.558 63.5555C120.999 62.9158 122.224 61.983 123.232 60.7571L129.356 67.9529C127.771 70.085 125.802 71.7907 123.448 73.0699C121.143 74.2959 118.189 74.9088 114.587 74.9088ZM113.579 41.6482C111.658 41.6482 110.025 42.2878 108.68 43.5671C107.383 44.8464 106.519 46.632 106.087 48.924H119.846C119.894 46.4188 119.342 44.5798 118.189 43.4072C117.085 42.2345 115.548 41.6482 113.579 41.6482Z" fill="white"/>
<path d="M114.587 74.9088C110.505 74.9088 106.975 74.0827 103.998 72.4303C101.02 70.7246 98.7146 68.3527 97.0817 65.3144C95.4489 62.2229 94.6324 58.5717 94.6324 54.3608C94.6324 50.0966 95.4489 46.3388 97.0817 43.0874C98.7627 39.8359 100.996 37.3041 103.781 35.4918C106.615 33.6795 109.809 32.7734 113.363 32.7734C117.397 32.7734 120.687 33.7861 123.232 35.8116C125.778 37.8371 127.531 40.7154 128.491 44.4466C129.5 48.1244 129.716 52.4153 129.139 57.3191H105.871C106.159 59.3446 107.119 61.0502 108.752 62.4361C110.385 63.7687 112.618 64.4349 115.452 64.4349C116.749 64.4349 118.117 64.1418 119.558 63.5555C120.999 62.9158 122.224 61.983 123.232 60.7571L129.356 67.9529C127.771 70.085 125.802 71.7907 123.448 73.0699C121.143 74.2959 118.189 74.9088 114.587 74.9088ZM113.579 41.6482C111.658 41.6482 110.025 42.2878 108.68 43.5671C107.383 44.8464 106.519 46.632 106.087 48.924H119.846C119.894 46.4188 119.342 44.5798 118.189 43.4072C117.085 42.2345 115.548 41.6482 113.579 41.6482Z" fill="white"/>
<path d="M152.687 74.9088C148.893 74.9088 145.603 74.1093 142.818 72.5102C140.032 70.8579 137.871 68.5126 136.334 65.4743C134.798 62.4361 134.029 58.8116 134.029 54.6007C134.029 50.2832 134.846 46.4987 136.478 43.2473C138.159 39.9425 140.465 37.384 143.394 35.5718C146.324 33.7062 149.734 32.7734 153.624 32.7734C156.794 32.7734 159.603 33.4663 162.052 34.8522C164.502 36.238 166.471 38.3968 167.96 41.3284L160.179 47.8846C159.411 46.3388 158.499 45.2195 157.442 44.5265C156.433 43.8336 155.161 43.4871 153.624 43.4871C151.271 43.4871 149.326 44.4999 147.789 46.5254C146.252 48.4976 145.483 51.1094 145.483 54.3608C145.483 57.5056 146.156 59.9309 147.5 61.6366C148.893 63.3422 150.886 64.1951 153.48 64.1951C154.873 64.1951 156.145 63.8486 157.298 63.1557C158.499 62.4095 159.507 61.2635 160.324 59.7177L167.888 66.4338C166.255 69.5253 164.094 71.7107 161.404 72.99C158.763 74.2692 155.857 74.9088 152.687 74.9088Z" fill="white"/>
<path d="M152.687 74.9088C148.893 74.9088 145.603 74.1093 142.818 72.5102C140.032 70.8579 137.871 68.5126 136.334 65.4743C134.798 62.4361 134.029 58.8116 134.029 54.6007C134.029 50.2832 134.846 46.4987 136.478 43.2473C138.159 39.9425 140.465 37.384 143.394 35.5718C146.324 33.7062 149.734 32.7734 153.624 32.7734C156.794 32.7734 159.603 33.4663 162.052 34.8522C164.502 36.238 166.471 38.3968 167.96 41.3284L160.179 47.8846C159.411 46.3388 158.499 45.2195 157.442 44.5265C156.433 43.8336 155.161 43.4871 153.624 43.4871C151.271 43.4871 149.326 44.4999 147.789 46.5254C146.252 48.4976 145.483 51.1094 145.483 54.3608C145.483 57.5056 146.156 59.9309 147.5 61.6366C148.893 63.3422 150.886 64.1951 153.48 64.1951C154.873 64.1951 156.145 63.8486 157.298 63.1557C158.499 62.4095 159.507 61.2635 160.324 59.7177L167.888 66.4338C166.255 69.5253 164.094 71.7107 161.404 72.99C158.763 74.2692 155.857 74.9088 152.687 74.9088Z" fill="white"/>
<path d="M171.711 74.1093V14.9438H182.733V49.6436L196.348 33.413H209.46L192.891 53.0816C193.995 53.8278 194.908 54.8139 195.628 56.0398L198.438 60.917C199.926 63.4755 202.016 64.7548 204.705 64.7548C206.146 64.7548 207.515 64.355 208.811 63.5555L211.189 72.5902C209.844 73.443 208.451 74.056 207.01 74.4291C205.618 74.8022 204.129 74.9621 202.544 74.9088C199.422 74.8555 196.829 74.2159 194.764 72.99C192.746 71.764 190.921 69.6852 189.289 66.7536L186.479 61.8764C185.807 60.7038 185.182 59.7443 184.606 58.9981C184.03 58.2519 183.405 57.6656 182.733 57.2391V74.1093H171.711Z" fill="white"/>
<path d="M171.711 74.1093V14.9438H182.733V49.6436L196.348 33.413H209.46L192.891 53.0816C193.995 53.8278 194.908 54.8139 195.628 56.0398L198.438 60.917C199.926 63.4755 202.016 64.7548 204.705 64.7548C206.146 64.7548 207.515 64.355 208.811 63.5555L211.189 72.5902C209.844 73.443 208.451 74.056 207.01 74.4291C205.618 74.8022 204.129 74.9621 202.544 74.9088C199.422 74.8555 196.829 74.2159 194.764 72.99C192.746 71.764 190.921 69.6852 189.289 66.7536L186.479 61.8764C185.807 60.7038 185.182 59.7443 184.606 58.9981C184.03 58.2519 183.405 57.6656 182.733 57.2391V74.1093H171.711Z" fill="white"/>
<path d="M267.107 90.1V33.413H278.201L277.841 39.6494C280.482 35.0654 284.397 32.7734 289.583 32.7734C292.849 32.7734 295.635 33.5996 297.94 35.2519C300.245 36.9043 301.998 39.1963 303.199 42.1279C304.4 45.0596 305 48.4176 305 52.2021C305 56.7328 304.16 60.7038 302.479 64.1151C300.798 67.5265 298.54 70.1916 295.707 72.1105C292.873 73.9761 289.704 74.9088 286.198 74.9088C284.517 74.9088 282.98 74.6423 281.587 74.1093C280.242 73.5763 279.042 72.8301 277.985 71.8706L278.129 74.1093V90.1H267.107ZM285.045 64.275C287.686 64.275 289.776 63.1823 291.312 60.9969C292.849 58.7582 293.618 55.9332 293.618 52.5219C293.618 49.6436 293.017 47.4049 291.817 45.8058C290.664 44.2067 289.079 43.4072 287.062 43.4072C284.613 43.4072 282.5 44.5265 280.723 46.7652C278.994 49.0039 278.129 51.9356 278.129 55.5601C278.129 58.2252 278.754 60.3573 280.002 61.9564C281.251 63.5022 282.932 64.275 285.045 64.275Z" fill="white"/>
<path d="M267.107 90.1V33.413H278.201L277.841 39.6494C280.482 35.0654 284.397 32.7734 289.583 32.7734C292.849 32.7734 295.635 33.5996 297.94 35.2519C300.245 36.9043 301.998 39.1963 303.199 42.1279C304.4 45.0596 305 48.4176 305 52.2021C305 56.7328 304.16 60.7038 302.479 64.1151C300.798 67.5265 298.54 70.1916 295.707 72.1105C292.873 73.9761 289.704 74.9088 286.198 74.9088C284.517 74.9088 282.98 74.6423 281.587 74.1093C280.242 73.5763 279.042 72.8301 277.985 71.8706L278.129 74.1093V90.1H267.107ZM285.045 64.275C287.686 64.275 289.776 63.1823 291.312 60.9969C292.849 58.7582 293.618 55.9332 293.618 52.5219C293.618 49.6436 293.017 47.4049 291.817 45.8058C290.664 44.2067 289.079 43.4072 287.062 43.4072C284.613 43.4072 282.5 44.5265 280.723 46.7652C278.994 49.0039 278.129 51.9356 278.129 55.5601C278.129 58.2252 278.754 60.3573 280.002 61.9564C281.251 63.5022 282.932 64.275 285.045 64.275Z" fill="white"/>
<path d="M232.004 51.3226L223.646 33.3956C223.238 32.5196 223.033 32.0817 222.75 31.7288C222.466 31.3754 222.124 31.0849 221.742 30.8728C221.361 30.6611 220.927 30.5567 220.058 30.348C216.919 29.5934 215.349 29.2161 214.35 29.6989C213.362 30.1767 212.638 31.1494 212.403 32.3169C212.165 33.4968 212.797 35.136 214.06 38.4144L218.34 49.5236L222.499 59.118L226.907 67.5731L228.23 69.7571C228.413 70.059 228.504 70.2101 228.608 70.3503C228.712 70.4905 228.828 70.6191 229.06 70.8764L230.508 72.4834C230.677 72.6716 230.762 72.7658 230.853 72.8529C230.943 72.94 231.039 73.02 231.231 73.1797L231.948 73.7766C232.521 74.2535 232.807 74.492 233.13 74.6578C233.453 74.8235 233.802 74.9118 234.5 75.0884L234.828 75.1713C235.198 75.2648 235.383 75.3116 235.571 75.3351C235.759 75.3586 235.949 75.3586 236.328 75.3586H237.751C238.177 75.3586 238.39 75.3586 238.601 75.3292C238.68 75.3181 238.759 75.3039 238.837 75.2866C239.045 75.2407 239.247 75.1659 239.651 75.0164C239.985 74.8929 240.152 74.8311 240.312 74.7508C240.372 74.7205 240.431 74.6882 240.49 74.6541C240.645 74.5635 240.792 74.4551 241.084 74.2386L241.547 73.8964C241.825 73.6907 241.964 73.5879 242.093 73.4705C242.222 73.3532 242.34 73.222 242.576 72.9598L243.339 72.113C243.565 71.862 243.678 71.7365 243.783 71.6025C243.888 71.4685 243.984 71.3265 244.176 71.0426L247.168 66.6137L249.357 62.7159L254.579 51.3226L260.113 39.1297L265.272 26.7369L271.807 11.7456L273.309 7.57647C273.41 7.29741 273.46 7.15769 273.498 7.02454C273.827 5.86749 273.631 4.60514 272.972 3.63695C272.896 3.52552 272.807 3.41265 272.628 3.1869L271.711 2.03048C270.547 0.560916 268.452 0.681119 267.43 2.27615L258.987 17.2674L251.671 30.9345L246.262 41.1285L237.825 56.4577C237.53 56.9927 237.006 57.3191 236.441 57.3191C235.896 57.3191 235.388 57.0153 235.088 56.5106L232.004 51.3226Z" fill="white"/>
<path d="M232.004 51.3226L223.646 33.3956C223.238 32.5196 223.033 32.0817 222.75 31.7288C222.466 31.3754 222.124 31.0849 221.742 30.8728C221.361 30.6611 220.927 30.5567 220.058 30.348C216.919 29.5934 215.349 29.2161 214.35 29.6989C213.362 30.1767 212.638 31.1494 212.403 32.3169C212.165 33.4968 212.797 35.136 214.06 38.4144L218.34 49.5236L222.499 59.118L226.907 67.5731L228.23 69.7571C228.413 70.059 228.504 70.2101 228.608 70.3503C228.712 70.4905 228.828 70.6191 229.06 70.8764L230.508 72.4834C230.677 72.6716 230.762 72.7658 230.853 72.8529C230.943 72.94 231.039 73.02 231.231 73.1797L231.948 73.7766C232.521 74.2535 232.807 74.492 233.13 74.6578C233.453 74.8235 233.802 74.9118 234.5 75.0884L234.828 75.1713C235.198 75.2648 235.383 75.3116 235.571 75.3351C235.759 75.3586 235.949 75.3586 236.328 75.3586H237.751C238.177 75.3586 238.39 75.3586 238.601 75.3292C238.68 75.3181 238.759 75.3039 238.837 75.2866C239.045 75.2407 239.247 75.1659 239.651 75.0164C239.985 74.8929 240.152 74.8311 240.312 74.7508C240.372 74.7205 240.431 74.6882 240.49 74.6541C240.645 74.5635 240.792 74.4551 241.084 74.2386L241.547 73.8964C241.825 73.6907 241.964 73.5879 242.093 73.4705C242.222 73.3532 242.34 73.222 242.576 72.9598L243.339 72.113C243.565 71.862 243.678 71.7365 243.783 71.6025C243.888 71.4685 243.984 71.3265 244.176 71.0426L247.168 66.6137L249.357 62.7159L254.579 51.3226L260.113 39.1297L265.272 26.7369L271.807 11.7456L273.309 7.57647C273.41 7.29741 273.46 7.15769 273.498 7.02454C273.827 5.86749 273.631 4.60514 272.972 3.63695C272.896 3.52552 272.807 3.41265 272.628 3.1869L271.711 2.03048C270.547 0.560916 268.452 0.681119 267.43 2.27615L258.987 17.2674L251.671 30.9345L246.262 41.1285L237.825 56.4577C237.53 56.9927 237.006 57.3191 236.441 57.3191C235.896 57.3191 235.388 57.0153 235.088 56.5106L232.004 51.3226Z" fill="white"/>
<path d="M48.33 62.9958C46.2169 66.8335 43.3113 69.7918 39.6133 71.8706C35.9152 73.8961 31.809 74.9088 27.2945 74.9088C21.7714 74.9088 17.0408 73.7895 13.1027 71.5508C9.21252 69.3121 6.21087 66.114 4.0977 61.9564C2.03257 57.7455 1 52.7084 1 46.8452C1 40.822 2.15263 35.5451 4.4579 31.0144C6.76317 26.4837 9.95693 22.9391 14.0392 20.3806C18.1694 17.8221 22.9241 16.5428 28.303 16.5428C33.0096 16.5428 36.9718 17.5023 40.1896 19.4212C43.4554 21.34 46.1929 24.245 48.4021 28.1361L39.3971 35.2519C38.2445 32.8 36.6596 31.0144 34.6425 29.8951C32.6254 28.7757 30.4642 28.216 28.1589 28.216C25.1333 28.216 22.4918 28.9889 20.2346 30.5347C17.9773 32.0805 16.2004 34.2392 14.9037 37.0109C13.655 39.7826 13.0306 42.9808 13.0306 46.6053C13.0306 51.8823 14.2793 55.9865 16.7767 58.9182C19.2741 61.8498 22.804 63.3156 27.3665 63.3156C29.8159 63.3156 32.1211 62.676 34.2823 61.3967C36.4915 60.0642 38.2685 58.0653 39.6133 55.4002L48.33 62.9958Z" stroke="white"/>
<path d="M51.6214 74.1093V14.9438H62.6434L62.7155 33.413L62.1391 41.968C63.628 39.0364 65.525 36.7711 67.8303 35.172C70.1836 33.5729 72.777 32.7734 75.6106 32.7734C79.981 32.7734 83.2468 34.4258 85.4079 37.7305C87.5691 40.9819 88.6257 45.6725 88.5777 51.8023L88.4336 74.1093H77.4116L77.5556 52.6818C77.6037 49.9101 77.2194 47.8046 76.403 46.3655C75.6346 44.873 74.3859 44.1268 72.6569 44.1268C71.2161 44.1268 69.8954 44.6065 68.6947 45.5659C67.4941 46.4721 66.4375 48.0445 65.525 50.2832C64.6605 52.5219 63.9641 55.5868 63.4359 59.4778C62.9076 63.3689 62.6194 68.2461 62.5714 74.1093H51.6214Z" stroke="white"/>
<path d="M114.587 74.9088C110.505 74.9088 106.975 74.0827 103.998 72.4303C101.02 70.7246 98.7146 68.3527 97.0817 65.3144C95.4489 62.2229 94.6324 58.5717 94.6324 54.3608C94.6324 50.0966 95.4489 46.3388 97.0817 43.0874C98.7627 39.8359 100.996 37.3041 103.781 35.4918C106.615 33.6795 109.809 32.7734 113.363 32.7734C117.397 32.7734 120.687 33.7861 123.232 35.8116C125.778 37.8371 127.531 40.7154 128.491 44.4466C129.5 48.1244 129.716 52.4153 129.139 57.3191H105.871C106.159 59.3446 107.119 61.0502 108.752 62.4361C110.385 63.7687 112.618 64.4349 115.452 64.4349C116.749 64.4349 118.117 64.1418 119.558 63.5555C120.999 62.9158 122.224 61.983 123.232 60.7571L129.356 67.9529C127.771 70.085 125.802 71.7907 123.448 73.0699C121.143 74.2959 118.189 74.9088 114.587 74.9088ZM113.579 41.6482C111.658 41.6482 110.025 42.2878 108.68 43.5671C107.383 44.8464 106.519 46.632 106.087 48.924H119.846C119.894 46.4188 119.342 44.5798 118.189 43.4072C117.085 42.2345 115.548 41.6482 113.579 41.6482Z" stroke="white"/>
<path d="M152.687 74.9088C148.893 74.9088 145.603 74.1093 142.818 72.5102C140.032 70.8579 137.871 68.5126 136.334 65.4743C134.798 62.4361 134.029 58.8116 134.029 54.6007C134.029 50.2832 134.846 46.4987 136.478 43.2473C138.159 39.9425 140.465 37.384 143.394 35.5718C146.324 33.7062 149.734 32.7734 153.624 32.7734C156.794 32.7734 159.603 33.4663 162.052 34.8522C164.502 36.238 166.471 38.3968 167.96 41.3284L160.179 47.8846C159.411 46.3388 158.499 45.2195 157.442 44.5265C156.433 43.8336 155.161 43.4871 153.624 43.4871C151.271 43.4871 149.326 44.4999 147.789 46.5254C146.252 48.4976 145.483 51.1094 145.483 54.3608C145.483 57.5056 146.156 59.9309 147.5 61.6366C148.893 63.3422 150.886 64.1951 153.48 64.1951C154.873 64.1951 156.145 63.8486 157.298 63.1557C158.499 62.4095 159.507 61.2635 160.324 59.7177L167.888 66.4338C166.255 69.5253 164.094 71.7107 161.404 72.99C158.763 74.2692 155.857 74.9088 152.687 74.9088Z" stroke="white"/>
<path d="M171.711 74.1093V14.9438H182.733V49.6436L196.348 33.413H209.46L192.891 53.0816C193.995 53.8278 194.908 54.8139 195.628 56.0398L198.438 60.917C199.926 63.4755 202.016 64.7548 204.705 64.7548C206.146 64.7548 207.515 64.355 208.811 63.5555L211.189 72.5902C209.844 73.443 208.451 74.056 207.01 74.4291C205.618 74.8022 204.129 74.9621 202.544 74.9088C199.422 74.8555 196.829 74.2159 194.764 72.99C192.746 71.764 190.921 69.6852 189.289 66.7536L186.479 61.8764C185.807 60.7038 185.182 59.7443 184.606 58.9981C184.03 58.2519 183.405 57.6656 182.733 57.2391V74.1093H171.711Z" stroke="white"/>
<path d="M267.107 90.1V33.413H278.201L277.841 39.6494C280.482 35.0654 284.397 32.7734 289.583 32.7734C292.849 32.7734 295.635 33.5996 297.94 35.2519C300.245 36.9043 301.998 39.1963 303.199 42.1279C304.4 45.0596 305 48.4176 305 52.2021C305 56.7328 304.16 60.7038 302.479 64.1151C300.798 67.5265 298.54 70.1916 295.707 72.1105C292.873 73.9761 289.704 74.9088 286.198 74.9088C284.517 74.9088 282.98 74.6423 281.587 74.1093C280.242 73.5763 279.042 72.8301 277.985 71.8706L278.129 74.1093V90.1H267.107ZM285.045 64.275C287.686 64.275 289.776 63.1823 291.312 60.9969C292.849 58.7582 293.618 55.9332 293.618 52.5219C293.618 49.6436 293.017 47.4049 291.817 45.8058C290.664 44.2067 289.079 43.4072 287.062 43.4072C284.613 43.4072 282.5 44.5265 280.723 46.7652C278.994 49.0039 278.129 51.9356 278.129 55.5601C278.129 58.2252 278.754 60.3573 280.002 61.9564C281.251 63.5022 282.932 64.275 285.045 64.275Z" stroke="white"/>
<path d="M232.004 51.3226L223.646 33.3956C223.238 32.5196 223.033 32.0817 222.75 31.7288C222.466 31.3754 222.124 31.0849 221.742 30.8728C221.361 30.6611 220.927 30.5567 220.058 30.348C216.919 29.5934 215.349 29.2161 214.35 29.6989C213.362 30.1767 212.638 31.1494 212.403 32.3169C212.165 33.4968 212.797 35.136 214.06 38.4144L218.34 49.5236L222.499 59.118L226.907 67.5731L228.23 69.7571C228.413 70.059 228.504 70.2101 228.608 70.3503C228.712 70.4905 228.828 70.6191 229.06 70.8764L230.508 72.4834C230.677 72.6716 230.762 72.7658 230.853 72.8529C230.943 72.94 231.039 73.02 231.231 73.1797L231.948 73.7766C232.521 74.2535 232.807 74.492 233.13 74.6578C233.453 74.8235 233.802 74.9118 234.5 75.0884L234.828 75.1713C235.198 75.2648 235.383 75.3116 235.571 75.3351C235.759 75.3586 235.949 75.3586 236.328 75.3586H237.751C238.177 75.3586 238.39 75.3586 238.601 75.3292C238.68 75.3181 238.759 75.3039 238.837 75.2866C239.045 75.2407 239.247 75.1659 239.651 75.0164C239.985 74.8929 240.152 74.8311 240.312 74.7508C240.372 74.7205 240.431 74.6882 240.49 74.6541C240.645 74.5635 240.792 74.4551 241.084 74.2386L241.547 73.8964C241.825 73.6907 241.964 73.5879 242.093 73.4705C242.222 73.3532 242.34 73.222 242.576 72.9598L243.339 72.113C243.565 71.862 243.678 71.7365 243.783 71.6025C243.888 71.4685 243.984 71.3265 244.176 71.0426L247.168 66.6137L249.357 62.7159L254.579 51.3226L260.113 39.1297L265.272 26.7369L271.807 11.7456L273.309 7.57647C273.41 7.29741 273.46 7.15769 273.498 7.02454C273.827 5.86749 273.631 4.60514 272.972 3.63695C272.896 3.52552 272.807 3.41265 272.628 3.1869L271.711 2.03048C270.547 0.560916 268.452 0.681119 267.43 2.27615L258.987 17.2674L251.671 30.9345L246.262 41.1285L237.825 56.4577C237.53 56.9927 237.006 57.3191 236.441 57.3191C235.896 57.3191 235.388 57.0153 235.088 56.5106L232.004 51.3226Z" stroke="white"/>
</svg>
